# xmcd CD database file
#
# Track frame offsets:
#	150
#	32914
#	54811
#	87074
#	124893
#	143215
#	167999
#	187028
#	206930
#	230252
#	257425
#
# Disc length: 3719 seconds
#
# Revision: 0
# Processed by: cddbd v1.5.1PL0 Copyright (c) Steve Scherf et al.
# Submitted via: CDex 1.51
#
DISCID=970e850b
DTITLE=Paradiso - Shaman's Trance
DYEAR=2005
DGENRE=New Age
TTITLE0=Time Lapse
TTITLE1=Ancient Waterways
TTITLE2=Tibetan's Dream
TTITLE3=Mirrors Of Karma
TTITLE4=Shaman's Trance
TTITLE5=Mountains Of Glory
TTITLE6=Passage To India
TTITLE7=Ocean's Chant
TTITLE8=Mystery Of High Places
TTITLE9=Land Of Free Space
TTITLE10=Truth Of Nothingness
EXTD=YEAR: 2005
EXTT0=
EXTT1=
EXTT2=
EXTT3=
EXTT4=
EXTT5=
EXTT6=
EXTT7=
EXTT8=
EXTT9=
EXTT10=
PLAYORDER=
